P2
# 8-bit pgm - grayscale
39 50
255
220 218 216 220 227 231 227 223 220 211 211 211 223 218 220 227 223 216 225 234 234 231 234 225
220 216 214 218 216 229 231 236 236 227 227 223 218 218 216
234 227 223 227 234 236 229 238 227 220 223 225 229 229 229 236 236 229 229 231 236 229 234 225
223 220 216 218 229 236 234 236 236 236 234 223 218 218 218
220 234 223 236 231 229 231 238 234 227 231 240 236 236 234 227 188 156 140 131 148 166 204 218
220 218 218 220 220 223 231 236 231 236 234 225 218 218 218
229 229 227 234 236 240 240 236 240 234 236 247 229 176  84   0   0   0   0   0   0   0   0   0
 80 164 216 223 223 229 231 234 240 245 238 225 223 220 218
247 242 242 245 242 242 247 242 245 242 240 183  17   0  47  30   0   0   0   0   0   0   0   0
  0   0   0 166 216 234 234 238 245 240 236 229 220 229 225
255 249 255 255 253 253 255 253 253 242 153   0   0  70 119  70   0   0   0   0   0   0   0   0
  0   0   0   0  80 218 238 242 242 245 238 238 236 231 227
255 255 255 255 255 255 255 255 240 148  54  75  88 103 151  92  75  40   0   0   0   0   0   0
  0   0   0   0   0   0 223 247 247 251 249 247 245 236 231
255 255 255 255 255 255 255 255 151  40  84 103 116 142 153 109  92  65   0   0   0   0   0   0
  0   0   0   0   0   0   0 229 255 255 255 255 249 238 234
255 255 255 255 255 255 255 216  17  60 116 169 211 247 253 227 195 171 131  17   0   0   0   0
  0   0   0   0   0   0   0 106 251 253 249 255 253 247 249
255 255 255 255 255 255 255 106  70 188 255 255 255 255 255 255 255 253 234 186  92   0   0   0
  0   0   0   0   0   0   0   0 183 253 253 255 255 255 255
255 255 255 255 255 255 191   0 176 247 255 255 255 255 255 255 255 255 255 234 161  99   0   0
  0   0   0   0   0   0   0   0   0 234 255 255 255 255 255
255 255 255 255 255 242   0  80 240 255 255 255 255 255 255 255 255 255 255 255 214 151  75   0
  0   0   0   0   0   0   0   0   0 148 255 255 255 255 255
255 255 255 255 255 134   0 134 255 255 255 255 255 255 255 255 255 255 255 255 236 169 109   0
  0   0   0   0   0   0   0   0   0   0 253 255 255 255 255
255 255 255 255 236   0   0 174 255 255 255 255 255 255 255 255 255 255 255 255 238 191 134  75
  0   0   0   0   0   0   0   0   0   0 195 255 242 242 255
255 255 255 255 186   0   0 171 255 255 255 255 255 255 255 255 255 255 255 255 245 207 171 122
 54   0   0   0   0   0   0   0   0   0  88 220 200 238 238
255 255 255 218  92   0   0 198 255 255 255 255 255 255 255 255 255 255 255 255 253 231 209 174
137  17   0   0   0   0   0   0   0   0   0 178 183 214 214
255 255 255 181   0   0   0 229 255 255 255 255 255 255 255 255 255 255 255 255 255 255 247 218
181  54   0   0   0   0   0   0   0   0   0 161 145 181 181
255 255 255 148   0   0   0 231 255 255 255 255 255 255 255 255 255 255 255 255 255 255 249 218
174  60   0   0   0   0   0   0   0   0   0 131 128 140 156
255 255 231 131   0   0   0 240 255 255 255 255 255 255 255 255 227 209 231 240 240 227 202 176
137  30   0   0   0   0   0   0   0   0   0  99  88 106 166
255 255 188  96   0   0   0 200 211 183 171 193 255 255 255 191 109 128 178 176 125 106  92  80
 99  40   0   0   0   0   0   0   0   0   0   0  54 119 125
255 255 156  47   0   0   0  92 125 181 151 166 223 255 255 122  96 195 188 122 109  47   0   0
137  99   0   0   0   0   0   0   0   0   0   0  84  92  96
255 255 181   0   0   0   0 169 161 218  92 140 229 255 236 125 188 255 255 128 137 142 171 225
227 140   0   0   0   0   0   0   0   0   0   0  70  65  65
229 255 171   0   0   0  70 245 253 255 218 227 255 255 242 169 223 255 255 251 220 220 255 255
234 142   0   0   0   0   0   0   0   0   0   0  65  70  75
151 216 137   0   0   0  96 255 255 255 255 255 255 255 249 204 249 255 255 255 255 255 255 255
216 119   0   0   0   0   0   0   0   0   0   0   0   0  84
 92 145 109   0   0   0  47 255 255 255 255 255 255 255 255 234 255 255 255 255 255 255 255 240
188  75   0   0   0   0   0   0   0   0   0   0  75  88  84
 92  92  84   0   0   0   0 247 255 255 255 255 255 255 255 245 255 255 255 255 255 255 255 207
148   0   0   0   0   0   0   0   0   0   0   0 134 145 151
 54   0   0   0   0   0   0 225 255 255 255 255 255 255 255 227 255 255 255 255 255 255 238 181
119   0   0   0   0   0   0   0   0   0   0   0  60 113 106
  0   0   0   0   0   0   0 178 255 255 255 255 255 255 253 225 231 255 255 255 255 255 207 145
 92   0   0   0   0   0   0   0   0   0   0   0   0   0   0
  0   0   0   0   0   0   0 116 245 255 255 255 255 255 142 125 145 255 255 255 255 229 176 109
 65   0   0   0   0   0   0   0   0   0   0   0   0   0   0
  0   0   0   0   0   0   0   0 198 245 255 255 255 122   0  17 151 255 255 255 247 209 158 116
 47   0   0   0   0   0   0   0   0   0   0   0   0   0   0
 30   0   0   0   0   0   0   0 181 214 253 255 255 207 145 174 220 231 218 234 234 198 161 128
 54   0   0   0   0   0   0   0   0   0   0   0   0   0   0
  0   0   0   0   0   0   0   0 174 234 216 198 231 245 181 151 142 109 200 247 240 202 158 113
 17   0   0   0   0   0   0   0   0   0   0   0   0   0   0
 40   0   0   0   0   0   0   0  96 229 255 255 255 255 223 178 166 216 245 255 240 195 137  92
  0   0   0   0   0   0   0   0   0   0   0   0   0   0  47
 99   0   0   0   0   0   0   0   0 151 236 255 255 220 186 176 188 207 218 229 204 158  99  40
  0   0   0   0   0   0   0   0   0   0   0   0   0   0  65
109   0   0   0   0   0   0   0   0   0 151 251 255 255 255 242 234 211 204 198 158  99  17   0
  0   0   0   0   0   0   0   0   0   0   0   0   0   0  88
145  99   0   0   0   0   0   0   0   0   0 176 255 255 255 255 238 214 193 158  99  30   0   0
  0   0   0   0   0   0   0   0   0   0   0   0   0   0 103
 99  92   0   0   0   0   0   0   0   0   0   0 193 255 255 242 211 166 106  60   0   0   0   0
  0   0   0   0   0   0   0   0   0   0   0   0   0   0  75
171 158   0   0   0   0   0   0   0   0   0   0   0 131 158 137 103  70   0   0   0   0   0   0
  0   0   0   0   0   0   0   0   0   0   0   0   0   0  70
188 174   0   0   0   0   0   0   0   0   0   0   0   0   0   0   0   0   0   0   0   0   0   0
  0   0   0   0   0   0   0   0   0   0   0   0   0   0   0
176 171  84   0   0   0   0   0   0   0   0   0   0   0   0   0   0   0   0   0   0   0   0   0
  0   0   0   0   0   0   0   0   0   0   0   0   0   0   0
164 161 131   0   0   0   0   0   0   0   0   0   0   0   0 166 125 103  17   0   0   0   0  17
 80  75  17   0   0   0   0   0   0   0   0   0   0   0   0
164 153 140   0   0   0   0   0   0   0   0   0   0   0   0 204 195 166 119  92  65  80  75 106
131 142  99   0   0   0   0   0   0   0   0   0   0   0   0
158 151 131   0   0   0   0   0   0   0   0   0   0   0   0 209 242 214 188 164 142 137 134 151
164 171 142  75   0   0   0   0   0   0   0   0   0   0   0
151 125  92   0   0   0   0   0   0   0   0   0   0   0   0 181 249 242 231 202 186 186 183 195
214 211 176 151   0   0   0   0   0   0   0   0   0   0   0
  0  65   0   0   0   0   0   0   0   0   0   0   0   0 137 200 245 255 255 240 229 220 229 242
238 240 214 176  84   0   0   0   0   0   0   0   0   0   0
  0   0   0   0   0   0   0   0   0   0   0   0  75 188 242 253 255 255 255 255 255 255 255 255
255 255 245 220 128   0   0   0   0   0   0   0   0   0   0
  0   0   0   0   0   0   0   0   0   0   0 156 207 255 255 255 255 255 255 255 255 255 255 255
255 255 255 249 176  40   0   0   0   0   0   0   0   0   0
  0   0   0   0   0   0   0   0   0  47 198 245 255 255 255 255 255 255 255 255 255 255 255 255
255 255 255 255 183  17   0   0   0   0   0   0   0   0   0
  0   0   0   0   0   0   0   0   0 195 255 255 255 255 255 255 255 255 255 255 255 255 255 255
255 255 255 249 151   0   0   0  65   0   0   0   0   0   0
  0   0   0   0   0   0   0   0 116 255 255 255 255 255 255 255 255 255 255 255 255 255 255 255
255 255 255 255 161  30   0   0  40   0   0   0   0   0   0
